<svg width="35" height="35" viewBox="0 0 35 35" fill="none" xmlns="http://www.w3.org/2000/svg">
<path d="M33.2227 9.11475V29.0301C33.2227 29.864 32.8913 30.6639 32.3017 31.2536C31.7119 31.8433 30.9121 32.1746 30.0781 32.1746M30.0781 32.1746C29.2442 32.1746 28.4444 31.8433 27.8546 31.2536C27.265 30.6639 26.9336 29.864 26.9336 29.0301V4.92204C26.9336 4.36606 26.7128 3.83283 26.3196 3.43969C25.9265 3.04656 25.3932 2.82568 24.8372 2.82568H3.8737C3.31772 2.82568 2.78449 3.04656 2.39135 3.43969C1.99821 3.83283 1.77734 4.36606 1.77734 4.92204V29.0301C1.77734 29.864 2.10864 30.6639 2.69836 31.2536C3.28807 31.8433 4.08789 32.1746 4.92188 32.1746H30.0781Z" stroke="black" stroke-width="2" stroke-linecap="round" stroke-linejoin="round"/>
<path d="M7.01819 21.6929H21.6927" stroke="black" stroke-width="2" stroke-linecap="round" stroke-linejoin="round"/>
<path d="M7.01819 25.8853H15.4036" stroke="black" stroke-width="2" stroke-linecap="round" stroke-linejoin="round"/>
<path d="M7.01819 8.06641H21.6927V16.4518H7.01819V8.06641Z" stroke="black" stroke-width="2" stroke-linecap="round" stroke-linejoin="round"/>
</svg>
