<svg width="240" height="240" xmlns="http://www.w3.org/2000/svg" viewBox="0 0 512 512">
<path fill="#e2e5e7" d="M128 0c-17.6 0-32 14.4-32 32v448c0 17.6 14.4 32 32 32h320c17.6 0 32-14.4 32-32V128L352 0H128z"/>
<path fill="#b0b7bd" d="M384 128h96L352 0v96c0 17.6 14.4 32 32 32z"/>
<polygon fill="#cad1d8" points="480 224 384 128 480 128"/>
<path fill="#f15642" d="M416 416H96c-17.6 0-32-14.4-32-32V256c0-17.6 14.4-32 32-32h320c17.6 0 32 14.4 32 32v128c0 17.6-14.4 32-32 32z"/>
<g fill="#fff">
  <path d="M101.3 313.1c4.7 0 8.7-1.6 12.1-4.7s5.1-7.1 5.1-11.9c0-4.9-1.7-8.9-5-12s-7.5-4.7-12.6-4.7h-15.2v33.4h15.6zm-15.2-46h15.9c9.5 0 17.1 2.5 22.7 7.5s8.4 11.9 8.4 20.7c0 8.8-2.8 15.6-8.5 20.6s-13.4 7.5-23.2 7.5h-15.3V359H73.3V267.1zM182.2 267.1h26c11.6 0 20.9 3.5 27.9 10.4 7 6.9 10.4 15.8 10.4 26.6 0 11.1-3.5 20.1-10.4 27.1s-16.1 10.5-27.5 10.5h-26c-1.3 0-2.4-.4-3.3-1.3-.9-.9-1.3-2-1.3-3.3V270.4c0-1.2.4-2.3 1.3-3.2.9-.9 2-1.3 3.3-1.3h-.4zm8 11.9v50.9h17.9c8.2 0 14.7-2.3 19.5-7 4.8-4.7 7.2-11 7.2-18.8 0-7.3-2.4-13.3-7.2-18-4.8-4.7-11.3-7-19.5-7h-17.9zM269.4 267.1h45.2v11.9h-32.5v20.4h28v11.8h-28v36.1h-12.6V267.1z"/>
</g>
</svg>
